<?xml version="1.0" standalone="no"?>
<!DOCTYPE svg PUBLIC "-//W3C//DTD SVG 20010904//EN"
 "http://www.w3.org/TR/2001/REC-SVG-20010904/DTD/svg10.dtd">
<svg version="1.0" xmlns="http://www.w3.org/2000/svg"
 width="743.000000pt" height="743.000000pt" viewBox="0 0 743.000000 743.000000"
 preserveAspectRatio="xMidYMid meet">
<metadata>
Created by potrace 1.14, written by Peter Selinger 2001-2017
</metadata>
<g transform="translate(0.000000,743.000000) scale(0.100000,-0.100000)"
fill="#000000" stroke="none">
<path d="M4305 4386 c-7 -6 -18 -27 -23 -46 -6 -19 -67 -181 -135 -360 l-125
-325 26 -6 c15 -3 32 -4 38 -2 9 3 96 212 129 308 6 19 7 19 19 -5 7 -14 37
-88 67 -165 29 -77 56 -142 60 -145 9 -6 290 -2 296 4 4 3 -92 274 -117 331
-5 11 -39 103 -76 205 -36 102 -69 190 -71 196 -6 16 -71 23 -88 10z"/>
<path d="M1480 4387 c0 -25 120 -178 194 -249 140 -133 341 -267 559 -373 l57
-27 0 -282 c0 -221 -3 -286 -13 -301 -12 -15 -28 -18 -95 -18 l-82 1 0 -29 0
-29 565 0 c311 0 565 3 566 8 1 11 7 153 9 261 l3 93 36 -6 c20 -3 47 -8 61
-11 13 -2 42 -7 65 -10 22 -3 47 -8 55 -10 19 -5 69 -12 145 -20 33 -4 62 -9
65 -10 3 -2 48 -7 99 -10 149 -11 143 -7 108 -87 -43 -98 -104 -140 -202 -142
-35 -1 -39 -4 -39 -26 l0 -25 256 -3 257 -2 -2 27 c-2 27 -5 28 -65 30 -74 4
-119 24 -128 58 -8 31 3 90 22 127 12 22 19 27 42 23 34 -7 202 -13 344 -14
l106 -1 21 -62 c26 -76 26 -90 1 -113 -15 -13 -37 -17 -100 -18 l-80 0 0 -28
0 -29 348 0 c192 0 351 2 354 5 3 3 3 16 1 29 -4 19 -11 24 -32 24 -105 -2
-136 19 -177 122 -15 39 -25 72 -23 74 2 3 47 7 99 10 52 4 106 8 120 10 14 3
65 7 115 11 49 4 92 8 95 10 3 2 30 6 60 9 30 4 70 8 88 11 17 3 46 7 63 9 17
3 43 7 57 11 27 5 28 3 60 -87 18 -51 37 -102 42 -113 9 -22 45 -120 54 -147
5 -17 14 -20 51 -20 8 0 21 0 29 1 10 1 79 182 92 244 1 4 2 8 3 10 1 1 16 44
34 96 l32 95 70 18 c39 10 101 28 138 39 38 12 72 17 77 13 4 -5 31 -74 59
-154 29 -80 56 -154 60 -165 5 -11 23 -60 40 -110 34 -97 30 -93 104 -86 8 0
25 39 40 89 15 48 65 208 111 356 l83 269 84 42 c181 91 361 212 483 325 55
51 196 223 196 239 0 4 -42 -34 -92 -84 -51 -50 -106 -101 -123 -113 -16 -12
-43 -32 -60 -44 -156 -120 -463 -269 -755 -368 -165 -55 -479 -137 -640 -165
-19 -3 -44 -7 -55 -9 -11 -2 -42 -7 -70 -11 -27 -4 -52 -8 -55 -10 -3 -2 -34
-6 -70 -10 -36 -4 -67 -8 -70 -10 -3 -2 -34 -6 -70 -10 -36 -3 -76 -8 -90 -10
-304 -44 -1029 -54 -1430 -20 -117 10 -341 35 -400 45 -30 6 -71 12 -90 14
-20 3 -47 7 -60 10 -14 3 -41 8 -60 10 -66 8 -235 45 -390 84 -576 148 -994
357 -1268 633 -50 51 -92 90 -92 86z m5048 -776 l-32 -102 -28 77 c-15 43 -25
80 -22 83 6 6 108 49 111 46 2 -1 -12 -47 -29 -104z m-3813 -33 c75 -24 210
-63 250 -72 119 -27 166 -39 170 -45 9 -16 -86 -189 -128 -233 -75 -79 -110
-91 -265 -91 -87 0 -138 5 -145 12 -8 8 -12 81 -12 234 -1 122 1 226 3 230 2
5 11 5 21 1 9 -3 57 -20 106 -36z"/>
<path d="M2100 4330 l0 -30 83 0 c51 0 88 -5 95 -12 8 -8 12 -55 12 -144 l0
-132 118 -42 c64 -23 131 -44 147 -47 l31 -5 -1 174 c-1 95 2 181 7 191 7 14
23 17 93 17 l85 0 0 30 0 30 -335 0 -335 0 0 -30z"/>
<path d="M4998 4355 c-3 -3 -3 -17 0 -30 4 -23 9 -25 53 -25 28 0 64 -6 82
-14 65 -28 63 -24 218 -443 28 -78 55 -141 58 -139 3 2 29 7 56 10 28 4 61 9
75 11 49 10 69 14 113 20 l45 7 -23 66 c-13 37 -37 105 -55 152 -100 272 -103
285 -72 313 11 10 36 17 60 17 40 0 42 1 42 30 l0 30 -323 0 c-178 0 -326 -2
-329 -5z"/>
<path d="M5742 4331 c-2 -28 -1 -28 59 -34 80 -7 109 -34 147 -142 l29 -80
-43 -134 c-24 -74 -44 -138 -44 -141 0 -4 20 -3 43 3 43 10 44 10 67 81 l23
71 19 -57 c11 -32 25 -58 32 -58 14 0 255 68 267 76 5 2 -1 28 -12 57 -11 29
-30 79 -41 112 -10 33 -23 69 -28 80 -45 100 -25 135 77 135 l63 0 0 30 0 30
-328 0 -328 0 -2 -29z"/>
<path d="M6489 4353 c-6 -57 -12 -53 68 -53 69 0 77 -2 104 -29 24 -25 29 -38
29 -78 0 -26 -7 -73 -15 -103 -8 -30 -13 -56 -10 -58 9 -10 79 25 86 43 4 11
18 46 30 78 40 101 102 147 199 147 49 0 50 1 50 30 l0 30 -270 0 c-148 0
-270 -3 -271 -7z"/>
<path d="M490 4100 c-36 -8 -27 -24 15 -27 22 -2 45 -5 51 -7 7 -3 10 -121 10
-383 l-1 -378 -53 -3 c-36 -2 -52 -7 -49 -15 2 -8 46 -13 145 -15 120 -2 142
0 142 12 0 10 -13 16 -42 18 l-43 3 -1 147 c-1 94 3 159 11 183 43 123 156
188 219 125 20 -19 21 -32 21 -238 l0 -217 -40 -5 c-22 -3 -41 -11 -42 -17 -2
-10 29 -13 132 -13 113 0 135 2 135 15 0 11 -11 15 -40 15 -22 0 -40 3 -41 8
-1 4 -2 95 -3 202 -2 154 -6 201 -18 225 -58 110 -209 112 -302 3 l-34 -40 1
201 c1 128 -2 201 -8 202 -73 3 -148 3 -165 -1z"/>
<path d="M159 4003 c-3 -126 -56 -203 -141 -203 -41 0 -9 -25 35 -28 26 -2 47
-6 48 -10 0 -4 1 -102 2 -219 l2 -212 29 -30 c35 -36 68 -49 119 -46 73 5 115
52 124 139 7 65 -12 79 -23 19 -14 -78 -37 -103 -95 -103 -54 0 -62 28 -61
228 0 97 1 189 1 205 l1 27 80 0 c64 0 80 3 80 15 0 15 -26 19 -117 15 -39 -1
-43 1 -44 22 0 13 -1 63 -2 113 -2 77 -5 90 -19 93 -14 3 -18 -3 -19 -25z"/>
<path d="M1378 3806 c-79 -29 -125 -77 -158 -164 -30 -80 -19 -202 26 -274 46
-72 124 -112 219 -111 105 1 172 56 195 160 6 25 4 32 -10 36 -13 3 -20 -6
-29 -42 -14 -54 -24 -68 -70 -101 -25 -17 -47 -23 -83 -23 -88 0 -135 59 -145
180 l-5 68 180 -2 181 -1 -5 50 c-11 97 -62 180 -131 214 -49 23 -119 27 -165
10z m107 -32 c44 -21 68 -74 77 -170 l3 -39 -120 0 -120 0 1 50 c1 72 35 142
76 160 42 18 43 18 83 -1z"/>
</g>
</svg>
